<?xml version="1.0" encoding="utf-8"?>
<!-- Generator: Adobe Illustrator 23.1.1, SVG Export Plug-In . SVG Version: 6.00 Build 0)  -->
<svg version="1.1" id="svg2" xmlns:svg="http://www.w3.org/2000/svg"
	 xmlns="http://www.w3.org/2000/svg" xmlns:xlink="http://www.w3.org/1999/xlink" x="0px" y="0px" viewBox="0 0 105 185"
	 style="enable-background:new 0 0 105 185;" xml:space="preserve">
<style type="text/css">
	.st0{fill-rule:evenodd;clip-rule:evenodd;fill:url(#path8464_1_);}
	.st1{fill:none;stroke:#5C1F00;stroke-width:4;}
	.st2{fill:none;stroke:#5C1F00;stroke-width:3;}
	.st3{fill-rule:evenodd;clip-rule:evenodd;fill:#FFFFFF;}
</style>
<linearGradient id="path8464_1_" gradientUnits="userSpaceOnUse" x1="2.8651" y1="65.5996" x2="77.5429" y2="12.5423" gradientTransform="matrix(1 0 0 -1 -6.969696e-06 186)">
	<stop  offset="0" style="stop-color:#F8D12C"/>
	<stop  offset="1" style="stop-color:#C8A106"/>
</linearGradient>
<path id="path8464" class="st0" d="M3.5,170.7c0.2-0.5,0.4-8.7,0.4-18.2l0.4-12.2l26.9-14.9c13.3-7.5,21-13.1,21.4-13.1
	c0.4,0,9.9,5,22.7,12.5l25.1,14.3l-0.4,13.5c0,9.5-0.2,17.2-0.4,17.1c-0.2-0.1-10.8-6.2-23.6-13.6c-12.7-7.3-23.4-13.3-23.8-13.3
	c-0.5,0-40.1,23.3-47.8,28.1C3.2,171.6,3.1,171.6,3.5,170.7L3.5,170.7z"/>
<g id="g4831" transform="matrix(1,0,0,0.3333332,3.5924439,3.3748511)">
</g>
<path id="path7935" class="st1" d="M4.3,169.7l49-28.7"/>
<path id="path7937" class="st2" d="M4,151l49.1-28.5"/>
<path id="path7939" class="st1" d="M4,140.8l48.5-28.6l48.6,28.3"/>
<path id="path7941" class="st2" d="M51.6,122.4l49.2,28.8"/>
<path id="path7945" class="st1" d="M51.3,141l49.4,28.9"/>
<rect id="rect8511" x="-1.8" y="122.4" class="st3" width="6.9" height="57.9"/>
<rect id="rect8513" x="100" y="119.5" class="st3" width="6.9" height="57.9"/>
</svg>
